<?xml version="1.0" encoding="utf-8"?>
<!-- Generator: Adobe Illustrator 26.5.0, SVG Export Plug-In . SVG Version: 6.00 Build 0)  -->
<svg version="1.1" id="Logo" xmlns="http://www.w3.org/2000/svg" xmlns:xlink="http://www.w3.org/1999/xlink" x="0px" y="0px"
	 viewBox="0 0 255 41" style="enable-background:new 0 0 255 41;" xml:space="preserve">
<style type="text/css">
	.st0{fill:#171717;}
</style>
<g>
	<path class="st0" d="M27.2,10.9h-19c-4.5,0-8.2,3.7-8.2,8.2v21.3C0.1,40.7,0.4,41,0.7,41h4.9c0.3,0,0.6-0.3,0.6-0.6v-10
		c0-0.3,0.3-0.6,0.6-0.6h16.6c0.3,0,0.6-0.3,0.6-0.6V24c0-0.3-0.3-0.6-0.6-0.6H6.7c-0.3,0.1-0.6-0.1-0.6-0.4v-3.5
		c0-1.2,1-2.2,2.2-2.2h18.9c0.3,0,0.6-0.3,0.6-0.6v-5.2C27.8,11.2,27.6,10.9,27.2,10.9z"/>
	<path class="st0" d="M38.8,0.1h-5.4c-0.2,0-0.4,0.2-0.4,0.4v40.1c0,0.2,0.2,0.4,0.4,0.4h5.4c0.2,0,0.4-0.2,0.4-0.5v-40
		C39.2,0.3,39,0.1,38.8,0.1z"/>
	<path class="st0" d="M236.4,10.9H223c-4.5,0-8.2,3.7-8.2,8.2v13.6c0,4.5,3.7,8.2,8.2,8.2h19.1c0.2,0,0.3-0.1,0.3-0.3v-5.8
		c0-0.2-0.1-0.3-0.3-0.3h-18.2c-1.6,0-2.8-1.3-2.8-2.8v-1.6c0-0.2,0.1-0.3,0.3-0.3h15c4.5,0,8.2-3.7,8.2-8.2v-2.5
		C244.6,14.6,240.9,10.9,236.4,10.9L236.4,10.9z M238.2,21.2c0,1.3-1,2.3-2.3,2.3h-14.5c-0.2,0-0.3-0.1-0.3-0.3v-3.6
		c0-1.3,1-2.3,2.3-2.3h12.5c1.3,0,2.3,1,2.3,2.3V21.2z"/>
	<path class="st0" d="M126.7,27.4c-0.1-0.1-0.3-0.1-0.4,0l-5.8,5.8c-1,1-2.3,1.5-3.6,1.5h-3.6c-1.4,0-2.7-0.5-3.6-1.5L91,14.3
		c-2.2-2.2-5.1-3.4-8.2-3.4h-4.2c-0.2,0-0.3,0.1-0.3,0.3v5.7c0,0.2,0.1,0.3,0.3,0.3h3.6c1.7,0,3.2,0.7,4.4,1.8l6.7,6.7
		c0.1,0.1,0.1,0.3,0,0.4l-7.6,7.4c-0.7,0.7-1.6,1-2.6,1H53.3c-1.6,0-2.8-1.3-2.8-2.8v-1.6c0-0.2,0.1-0.3,0.3-0.3h15
		c4.6,0,8.2-3.7,8.2-8.2v-2.5c0-4.5-3.7-8.2-8.2-8.2H52.4c-4.5,0-8.2,3.7-8.2,8.2v13.6c0,4.5,3.7,8.2,8.2,8.2H83
		c2.9,0,5.6-1.1,7.6-3.2l7.2-7.2c0.1-0.1,0.3-0.1,0.4,0l7.1,7.1c2.1,2.1,4.9,3.3,7.9,3.3h3.9c3.1,0,6-1.2,8.1-3.4l5.7-5.7
		c0.1-0.1,0.1-0.3,0-0.4L126.7,27.4z M50.5,19.6c0-1.3,1.1-2.3,2.3-2.3h12.5c1.3,0,2.3,1,2.3,2.3v1.6c0,1.3-1,2.3-2.3,2.3H50.8
		c-0.2,0-0.3-0.1-0.3-0.3V19.6z"/>
	<path class="st0" d="M163.2,10.8h-5.4c-0.2,0-0.4,0.2-0.4,0.4v23.5h-8.6c-1.7,0-3.2-0.7-4.4-1.8l-6.7-6.7c-0.1-0.1-0.1-0.3,0-0.4
		l7.6-7.4c0.7-0.7,1.6-1,2.6-1h4.5c0.2,0,0.3-0.1,0.3-0.3v-5.9c0-0.2-0.1-0.3-0.3-0.3h-4.3c-2.9,0-5.6,1.1-7.6,3.2l-7.2,7.2
		c-0.1,0.1-0.3,0.1-0.4,0l-7.1-7.1c-2.1-2.1-5-3.3-8-3.3H114c-3,0-5.9,1.2-8,3.3l-5.8,5.8c-0.1,0.1-0.1,0.3,0,0.4l4.2,4.2
		c0.1,0.1,0.3,0.1,0.4,0l5.8-5.8c1-1,2.3-1.5,3.6-1.5h3.6c1.4,0,2.7,0.5,3.6,1.5l18.7,18.8c2.2,2.2,5.1,3.4,8.2,3.4h14.9
		c0.2,0,0.4-0.2,0.4-0.4V11.2C163.6,11,163.5,10.8,163.2,10.8L163.2,10.8z"/>
	<path class="st0" d="M163.2,0h-5.4c-0.2,0-0.4,0.2-0.4,0.4v5.4c0,0.2,0.2,0.4,0.4,0.4h5.4c0.2,0,0.4-0.2,0.4-0.4V0.5
		C163.6,0.2,163.5,0,163.2,0z"/>
	<path class="st0" d="M190.4,10.8h-15.5V0.3c0-0.2-0.1-0.3-0.3-0.3h-5.8c-0.2,0-0.3,0.1-0.3,0.3v32.5c0,4.6,3.7,8.3,8.3,8.2
		l13.6-0.1c4.5,0,8.2-3.7,8.2-8.2V19C198.6,14.5,194.9,10.8,190.4,10.8z M192.4,31.8c0,1.5-1.3,2.6-2.7,2.6h-12.1
		c-1.5,0-2.6-1.2-2.6-2.6V17.5c0-0.2,0.1-0.3,0.3-0.3h14.5c1.5,0,2.6,1.2,2.6,2.6C192.4,19.8,192.4,31.8,192.4,31.8z"/>
	<path class="st0" d="M209.4,0.1H204c-0.2,0-0.4,0.2-0.4,0.4v40.1c0,0.2,0.2,0.4,0.4,0.4h5.4c0.2,0,0.4-0.2,0.4-0.5v-40
		C209.8,0.3,209.6,0.1,209.4,0.1z"/>
</g>
<g>
	<path class="st0" d="M251.5,5c-0.1-0.1-0.2-0.1-0.3-0.2c0.4-0.1,0.7-0.2,0.9-0.4s0.3-0.4,0.3-0.7c0-0.2-0.1-0.4-0.2-0.6
		s-0.3-0.3-0.5-0.4s-0.5-0.1-0.8-0.1h-1.8v4.1h0.5V4.8h0.6c0.1,0,0.2,0,0.3,0s0.2,0.1,0.2,0.1s0.2,0.1,0.3,0.3s0.2,0.3,0.4,0.6
		l0.5,0.8h0.7l-0.7-1.1C251.8,5.3,251.7,5.1,251.5,5L251.5,5z M250.8,4.4h-1.2V3h1.3c0.3,0,0.5,0.1,0.7,0.2s0.2,0.3,0.2,0.5
		c0,0.1,0,0.3-0.1,0.4s-0.2,0.2-0.3,0.2S251,4.4,250.8,4.4L250.8,4.4z"/>
	<path class="st0" d="M250.6,0.2c-2.4,0-4.4,2-4.4,4.4s2,4.4,4.4,4.4s4.4-2,4.4-4.4S253,0.2,250.6,0.2z M250.6,8.5
		c-2.1,0-3.9-1.7-3.9-3.9s1.7-3.9,3.9-3.9s3.9,1.7,3.9,3.9S252.8,8.5,250.6,8.5z"/>
</g>
</svg>
